<mxfile host="app.diagrams.net" modified="2022-01-18T14:56:28.169Z" agent="5.0 (Windows NT 10.0; Win64; x64) AppleWebKit/537.36 (KHTML, like Gecko) Chrome/97.0.4692.71 Safari/537.36" etag="D7ZkPgHnq8_q7I-svME0" version="16.3.0" type="github">
  <diagram id="C5RBs43oDa-KdzZeNtuy" name="Page-1">
    <mxGraphModel dx="1038" dy="579" grid="1" gridSize="10" guides="1" tooltips="1" connect="1" arrows="1" fold="1" page="1" pageScale="1" pageWidth="3300" pageHeight="4681" math="0" shadow="0">
      <root>
        <mxCell id="WIyWlLk6GJQsqaUBKTNV-0" />
        <mxCell id="WIyWlLk6GJQsqaUBKTNV-1" parent="WIyWlLk6GJQsqaUBKTNV-0" />
        <mxCell id="Ayx8UKwLZl4_eoQ2Mf-4-32" value="" style="endArrow=classic;html=1;rounded=0;entryX=0.566;entryY=0.129;entryDx=0;entryDy=0;entryPerimeter=0;" edge="1" parent="WIyWlLk6GJQsqaUBKTNV-1" target="Ayx8UKwLZl4_eoQ2Mf-4-30">
          <mxGeometry width="50" height="50" relative="1" as="geometry">
            <mxPoint x="219.5" y="760" as="sourcePoint" />
            <mxPoint x="219.5" y="840" as="targetPoint" />
          </mxGeometry>
        </mxCell>
        <mxCell id="Ayx8UKwLZl4_eoQ2Mf-4-19" value="" style="edgeStyle=orthogonalEdgeStyle;rounded=0;orthogonalLoop=1;jettySize=auto;html=1;" edge="1" parent="WIyWlLk6GJQsqaUBKTNV-1" source="WIyWlLk6GJQsqaUBKTNV-3" target="Ayx8UKwLZl4_eoQ2Mf-4-0">
          <mxGeometry relative="1" as="geometry" />
        </mxCell>
        <mxCell id="WIyWlLk6GJQsqaUBKTNV-3" value="Inicio" style="rounded=1;whiteSpace=wrap;html=1;fontSize=12;glass=0;strokeWidth=1;shadow=0;" parent="WIyWlLk6GJQsqaUBKTNV-1" vertex="1">
          <mxGeometry x="160" y="80" width="120" height="40" as="geometry" />
        </mxCell>
        <mxCell id="WIyWlLk6GJQsqaUBKTNV-5" value="Não" style="edgeStyle=orthogonalEdgeStyle;rounded=0;html=1;jettySize=auto;orthogonalLoop=1;fontSize=11;endArrow=block;endFill=0;endSize=8;strokeWidth=1;shadow=0;labelBackgroundColor=none;" parent="WIyWlLk6GJQsqaUBKTNV-1" edge="1">
          <mxGeometry x="0.2" y="10" relative="1" as="geometry">
            <mxPoint as="offset" />
            <mxPoint x="220" y="420" as="sourcePoint" />
            <mxPoint x="370" y="420" as="targetPoint" />
          </mxGeometry>
        </mxCell>
        <mxCell id="WIyWlLk6GJQsqaUBKTNV-6" value="Data posterior a data atual?" style="rhombus;whiteSpace=wrap;html=1;shadow=0;fontFamily=Helvetica;fontSize=12;align=center;strokeWidth=1;spacing=6;spacingTop=-4;" parent="WIyWlLk6GJQsqaUBKTNV-1" vertex="1">
          <mxGeometry x="160" y="360" width="120" height="120" as="geometry" />
        </mxCell>
        <mxCell id="Ayx8UKwLZl4_eoQ2Mf-4-2" value="" style="edgeStyle=orthogonalEdgeStyle;rounded=0;orthogonalLoop=1;jettySize=auto;html=1;entryX=0;entryY=0;entryDx=40;entryDy=0;entryPerimeter=0;" edge="1" parent="WIyWlLk6GJQsqaUBKTNV-1" target="Ayx8UKwLZl4_eoQ2Mf-4-0">
          <mxGeometry relative="1" as="geometry">
            <mxPoint x="220" y="170" as="sourcePoint" />
          </mxGeometry>
        </mxCell>
        <mxCell id="Ayx8UKwLZl4_eoQ2Mf-4-18" value="" style="edgeStyle=orthogonalEdgeStyle;rounded=0;orthogonalLoop=1;jettySize=auto;html=1;" edge="1" parent="WIyWlLk6GJQsqaUBKTNV-1" source="Ayx8UKwLZl4_eoQ2Mf-4-0" target="Ayx8UKwLZl4_eoQ2Mf-4-3">
          <mxGeometry relative="1" as="geometry" />
        </mxCell>
        <mxCell id="Ayx8UKwLZl4_eoQ2Mf-4-0" value="Informar data do evento" style="shape=display;whiteSpace=wrap;html=1;" vertex="1" parent="WIyWlLk6GJQsqaUBKTNV-1">
          <mxGeometry x="135" y="160" width="170" height="40" as="geometry" />
        </mxCell>
        <mxCell id="Ayx8UKwLZl4_eoQ2Mf-4-20" value="" style="edgeStyle=orthogonalEdgeStyle;rounded=0;orthogonalLoop=1;jettySize=auto;html=1;" edge="1" parent="WIyWlLk6GJQsqaUBKTNV-1" source="Ayx8UKwLZl4_eoQ2Mf-4-3" target="WIyWlLk6GJQsqaUBKTNV-6">
          <mxGeometry relative="1" as="geometry" />
        </mxCell>
        <mxCell id="Ayx8UKwLZl4_eoQ2Mf-4-3" value="Data" style="shape=manualInput;whiteSpace=wrap;html=1;" vertex="1" parent="WIyWlLk6GJQsqaUBKTNV-1">
          <mxGeometry x="180" y="240" width="80" height="80" as="geometry" />
        </mxCell>
        <mxCell id="Ayx8UKwLZl4_eoQ2Mf-4-21" value="Data inválida" style="shape=display;whiteSpace=wrap;html=1;" vertex="1" parent="WIyWlLk6GJQsqaUBKTNV-1">
          <mxGeometry x="370" y="400" width="170" height="40" as="geometry" />
        </mxCell>
        <mxCell id="Ayx8UKwLZl4_eoQ2Mf-4-22" value="" style="endArrow=classic;html=1;rounded=0;entryX=1;entryY=0.5;entryDx=0;entryDy=0;entryPerimeter=0;exitX=0;exitY=0;exitDx=96.25;exitDy=0;exitPerimeter=0;" edge="1" parent="WIyWlLk6GJQsqaUBKTNV-1" source="Ayx8UKwLZl4_eoQ2Mf-4-21" target="Ayx8UKwLZl4_eoQ2Mf-4-0">
          <mxGeometry width="50" height="50" relative="1" as="geometry">
            <mxPoint x="414" y="380" as="sourcePoint" />
            <mxPoint x="464" y="330" as="targetPoint" />
            <Array as="points">
              <mxPoint x="466" y="180" />
            </Array>
          </mxGeometry>
        </mxCell>
        <mxCell id="Ayx8UKwLZl4_eoQ2Mf-4-23" value="Cadastro realizado" style="shape=display;whiteSpace=wrap;html=1;" vertex="1" parent="WIyWlLk6GJQsqaUBKTNV-1">
          <mxGeometry x="135" y="620" width="170" height="40" as="geometry" />
        </mxCell>
        <mxCell id="Ayx8UKwLZl4_eoQ2Mf-4-24" value="Sim" style="endArrow=classic;html=1;rounded=0;exitX=0.5;exitY=1;exitDx=0;exitDy=0;" edge="1" parent="WIyWlLk6GJQsqaUBKTNV-1" source="WIyWlLk6GJQsqaUBKTNV-6">
          <mxGeometry x="-0.2" y="-20" width="50" height="50" relative="1" as="geometry">
            <mxPoint x="390" y="520" as="sourcePoint" />
            <mxPoint x="220" y="530" as="targetPoint" />
            <mxPoint as="offset" />
          </mxGeometry>
        </mxCell>
        <mxCell id="Ayx8UKwLZl4_eoQ2Mf-4-25" value="Cadastrar data" style="rounded=0;whiteSpace=wrap;html=1;" vertex="1" parent="WIyWlLk6GJQsqaUBKTNV-1">
          <mxGeometry x="160" y="530" width="120" height="40" as="geometry" />
        </mxCell>
        <mxCell id="Ayx8UKwLZl4_eoQ2Mf-4-26" value="" style="endArrow=classic;html=1;rounded=0;exitX=0.5;exitY=1;exitDx=0;exitDy=0;entryX=0.493;entryY=0.015;entryDx=0;entryDy=0;entryPerimeter=0;" edge="1" parent="WIyWlLk6GJQsqaUBKTNV-1" source="Ayx8UKwLZl4_eoQ2Mf-4-25" target="Ayx8UKwLZl4_eoQ2Mf-4-23">
          <mxGeometry width="50" height="50" relative="1" as="geometry">
            <mxPoint x="390" y="720" as="sourcePoint" />
            <mxPoint x="220" y="610" as="targetPoint" />
          </mxGeometry>
        </mxCell>
        <mxCell id="Ayx8UKwLZl4_eoQ2Mf-4-28" value="Deseja cadastrar um novo participante?" style="shape=display;whiteSpace=wrap;html=1;" vertex="1" parent="WIyWlLk6GJQsqaUBKTNV-1">
          <mxGeometry x="117.5" y="710" width="205" height="50" as="geometry" />
        </mxCell>
        <mxCell id="Ayx8UKwLZl4_eoQ2Mf-4-35" value="" style="edgeStyle=orthogonalEdgeStyle;rounded=0;orthogonalLoop=1;jettySize=auto;html=1;" edge="1" parent="WIyWlLk6GJQsqaUBKTNV-1" source="Ayx8UKwLZl4_eoQ2Mf-4-30" target="Ayx8UKwLZl4_eoQ2Mf-4-34">
          <mxGeometry relative="1" as="geometry" />
        </mxCell>
        <mxCell id="Ayx8UKwLZl4_eoQ2Mf-4-30" value="Resposta" style="shape=manualInput;whiteSpace=wrap;html=1;" vertex="1" parent="WIyWlLk6GJQsqaUBKTNV-1">
          <mxGeometry x="180" y="790" width="70" height="70" as="geometry" />
        </mxCell>
        <mxCell id="Ayx8UKwLZl4_eoQ2Mf-4-31" value="" style="endArrow=classic;html=1;rounded=0;exitX=0.493;exitY=1.035;exitDx=0;exitDy=0;exitPerimeter=0;entryX=0.498;entryY=-0.012;entryDx=0;entryDy=0;entryPerimeter=0;" edge="1" parent="WIyWlLk6GJQsqaUBKTNV-1" source="Ayx8UKwLZl4_eoQ2Mf-4-23" target="Ayx8UKwLZl4_eoQ2Mf-4-28">
          <mxGeometry width="50" height="50" relative="1" as="geometry">
            <mxPoint x="219.5" y="700.8000000000002" as="sourcePoint" />
            <mxPoint x="220" y="660.8000000000002" as="targetPoint" />
          </mxGeometry>
        </mxCell>
        <mxCell id="Ayx8UKwLZl4_eoQ2Mf-4-45" value="Sim" style="edgeStyle=orthogonalEdgeStyle;rounded=0;orthogonalLoop=1;jettySize=auto;html=1;" edge="1" parent="WIyWlLk6GJQsqaUBKTNV-1" source="Ayx8UKwLZl4_eoQ2Mf-4-34">
          <mxGeometry relative="1" as="geometry">
            <mxPoint x="370" y="980" as="targetPoint" />
          </mxGeometry>
        </mxCell>
        <mxCell id="Ayx8UKwLZl4_eoQ2Mf-4-34" value="Novo participante?" style="rhombus;whiteSpace=wrap;html=1;shadow=0;fontFamily=Helvetica;fontSize=12;align=center;strokeWidth=1;spacing=6;spacingTop=-4;" vertex="1" parent="WIyWlLk6GJQsqaUBKTNV-1">
          <mxGeometry x="155" y="920" width="120" height="120" as="geometry" />
        </mxCell>
        <mxCell id="Ayx8UKwLZl4_eoQ2Mf-4-40" value="" style="edgeStyle=orthogonalEdgeStyle;rounded=0;orthogonalLoop=1;jettySize=auto;html=1;" edge="1" parent="WIyWlLk6GJQsqaUBKTNV-1" source="Ayx8UKwLZl4_eoQ2Mf-4-37" target="Ayx8UKwLZl4_eoQ2Mf-4-39">
          <mxGeometry relative="1" as="geometry" />
        </mxCell>
        <mxCell id="Ayx8UKwLZl4_eoQ2Mf-4-37" value="Qual a idade do participante?" style="shape=display;whiteSpace=wrap;html=1;" vertex="1" parent="WIyWlLk6GJQsqaUBKTNV-1">
          <mxGeometry x="800" y="955" width="205" height="50" as="geometry" />
        </mxCell>
        <mxCell id="Ayx8UKwLZl4_eoQ2Mf-4-42" value="" style="edgeStyle=orthogonalEdgeStyle;rounded=0;orthogonalLoop=1;jettySize=auto;html=1;" edge="1" parent="WIyWlLk6GJQsqaUBKTNV-1" source="Ayx8UKwLZl4_eoQ2Mf-4-39" target="Ayx8UKwLZl4_eoQ2Mf-4-41">
          <mxGeometry relative="1" as="geometry" />
        </mxCell>
        <mxCell id="Ayx8UKwLZl4_eoQ2Mf-4-39" value="Resposta" style="shape=manualInput;whiteSpace=wrap;html=1;" vertex="1" parent="WIyWlLk6GJQsqaUBKTNV-1">
          <mxGeometry x="1057.5" y="945" width="70" height="70" as="geometry" />
        </mxCell>
        <mxCell id="Ayx8UKwLZl4_eoQ2Mf-4-66" value="Siim" style="edgeStyle=orthogonalEdgeStyle;rounded=0;orthogonalLoop=1;jettySize=auto;html=1;" edge="1" parent="WIyWlLk6GJQsqaUBKTNV-1" source="Ayx8UKwLZl4_eoQ2Mf-4-41" target="Ayx8UKwLZl4_eoQ2Mf-4-61">
          <mxGeometry relative="1" as="geometry" />
        </mxCell>
        <mxCell id="Ayx8UKwLZl4_eoQ2Mf-4-41" value="Maior de 18 anos?" style="rhombus;whiteSpace=wrap;html=1;shadow=0;fontFamily=Helvetica;fontSize=12;align=center;strokeWidth=1;spacing=6;spacingTop=-4;" vertex="1" parent="WIyWlLk6GJQsqaUBKTNV-1">
          <mxGeometry x="1177.5" y="920" width="120" height="120" as="geometry" />
        </mxCell>
        <mxCell id="Ayx8UKwLZl4_eoQ2Mf-4-43" value="Cadastro não permitido para participantes com menos de 18 anos" style="shape=display;whiteSpace=wrap;html=1;size=0.24444444444444444;" vertex="1" parent="WIyWlLk6GJQsqaUBKTNV-1">
          <mxGeometry x="1125" y="705" width="225" height="60" as="geometry" />
        </mxCell>
        <mxCell id="Ayx8UKwLZl4_eoQ2Mf-4-48" value="" style="edgeStyle=orthogonalEdgeStyle;rounded=0;orthogonalLoop=1;jettySize=auto;html=1;" edge="1" parent="WIyWlLk6GJQsqaUBKTNV-1" source="Ayx8UKwLZl4_eoQ2Mf-4-46" target="Ayx8UKwLZl4_eoQ2Mf-4-47">
          <mxGeometry relative="1" as="geometry" />
        </mxCell>
        <mxCell id="Ayx8UKwLZl4_eoQ2Mf-4-46" value="Quantidade de Participantes já cadastrados +1" style="rounded=0;whiteSpace=wrap;html=1;" vertex="1" parent="WIyWlLk6GJQsqaUBKTNV-1">
          <mxGeometry x="370" y="955" width="120" height="50" as="geometry" />
        </mxCell>
        <mxCell id="Ayx8UKwLZl4_eoQ2Mf-4-50" value="Sim" style="edgeStyle=orthogonalEdgeStyle;rounded=0;orthogonalLoop=1;jettySize=auto;html=1;" edge="1" parent="WIyWlLk6GJQsqaUBKTNV-1" source="Ayx8UKwLZl4_eoQ2Mf-4-47" target="Ayx8UKwLZl4_eoQ2Mf-4-49">
          <mxGeometry relative="1" as="geometry" />
        </mxCell>
        <mxCell id="Ayx8UKwLZl4_eoQ2Mf-4-51" value="Não" style="edgeStyle=orthogonalEdgeStyle;rounded=0;orthogonalLoop=1;jettySize=auto;html=1;" edge="1" parent="WIyWlLk6GJQsqaUBKTNV-1" source="Ayx8UKwLZl4_eoQ2Mf-4-47" target="Ayx8UKwLZl4_eoQ2Mf-4-37">
          <mxGeometry relative="1" as="geometry" />
        </mxCell>
        <mxCell id="Ayx8UKwLZl4_eoQ2Mf-4-47" value="Quantidade final de participantes é maior que 100?" style="rhombus;whiteSpace=wrap;html=1;shadow=0;fontFamily=Helvetica;fontSize=12;align=center;strokeWidth=1;spacing=6;spacingTop=-4;" vertex="1" parent="WIyWlLk6GJQsqaUBKTNV-1">
          <mxGeometry x="540" y="920" width="162.5" height="120" as="geometry" />
        </mxCell>
        <mxCell id="Ayx8UKwLZl4_eoQ2Mf-4-55" value="" style="edgeStyle=orthogonalEdgeStyle;rounded=0;orthogonalLoop=1;jettySize=auto;html=1;" edge="1" parent="WIyWlLk6GJQsqaUBKTNV-1" source="Ayx8UKwLZl4_eoQ2Mf-4-49" target="Ayx8UKwLZl4_eoQ2Mf-4-54">
          <mxGeometry relative="1" as="geometry" />
        </mxCell>
        <mxCell id="Ayx8UKwLZl4_eoQ2Mf-4-49" value="Cadastro não permitido por ter excedido o limite de participantes" style="shape=display;whiteSpace=wrap;html=1;" vertex="1" parent="WIyWlLk6GJQsqaUBKTNV-1">
          <mxGeometry x="515.63" y="1090" width="211.25" height="70" as="geometry" />
        </mxCell>
        <mxCell id="Ayx8UKwLZl4_eoQ2Mf-4-52" value="Não" style="endArrow=classic;html=1;rounded=0;exitX=0.5;exitY=0;exitDx=0;exitDy=0;entryX=0.502;entryY=0.996;entryDx=0;entryDy=0;entryPerimeter=0;" edge="1" parent="WIyWlLk6GJQsqaUBKTNV-1" source="Ayx8UKwLZl4_eoQ2Mf-4-41" target="Ayx8UKwLZl4_eoQ2Mf-4-43">
          <mxGeometry width="50" height="50" relative="1" as="geometry">
            <mxPoint x="1230" y="880" as="sourcePoint" />
            <mxPoint x="1280" y="830" as="targetPoint" />
          </mxGeometry>
        </mxCell>
        <mxCell id="Ayx8UKwLZl4_eoQ2Mf-4-53" value="" style="endArrow=classic;html=1;rounded=0;exitX=0;exitY=0.5;exitDx=0;exitDy=0;exitPerimeter=0;entryX=1;entryY=0.5;entryDx=0;entryDy=0;entryPerimeter=0;" edge="1" parent="WIyWlLk6GJQsqaUBKTNV-1" source="Ayx8UKwLZl4_eoQ2Mf-4-43" target="Ayx8UKwLZl4_eoQ2Mf-4-28">
          <mxGeometry width="50" height="50" relative="1" as="geometry">
            <mxPoint x="900" y="740" as="sourcePoint" />
            <mxPoint x="950" y="690" as="targetPoint" />
          </mxGeometry>
        </mxCell>
        <mxCell id="Ayx8UKwLZl4_eoQ2Mf-4-71" value="" style="edgeStyle=orthogonalEdgeStyle;rounded=0;orthogonalLoop=1;jettySize=auto;html=1;" edge="1" parent="WIyWlLk6GJQsqaUBKTNV-1" source="Ayx8UKwLZl4_eoQ2Mf-4-54" target="Ayx8UKwLZl4_eoQ2Mf-4-70">
          <mxGeometry relative="1" as="geometry" />
        </mxCell>
        <mxCell id="Ayx8UKwLZl4_eoQ2Mf-4-54" value="Lista dos participantes" style="shape=display;whiteSpace=wrap;html=1;" vertex="1" parent="WIyWlLk6GJQsqaUBKTNV-1">
          <mxGeometry x="515.62" y="1220" width="211.25" height="50" as="geometry" />
        </mxCell>
        <mxCell id="Ayx8UKwLZl4_eoQ2Mf-4-59" value="Não" style="endArrow=classic;html=1;rounded=0;entryX=0;entryY=0.5;entryDx=0;entryDy=0;entryPerimeter=0;exitX=0.5;exitY=1;exitDx=0;exitDy=0;" edge="1" parent="WIyWlLk6GJQsqaUBKTNV-1" source="Ayx8UKwLZl4_eoQ2Mf-4-34" target="Ayx8UKwLZl4_eoQ2Mf-4-54">
          <mxGeometry x="-0.7627" y="-15" width="50" height="50" relative="1" as="geometry">
            <mxPoint x="190" y="1230" as="sourcePoint" />
            <mxPoint x="240" y="1180" as="targetPoint" />
            <Array as="points">
              <mxPoint x="215" y="1245" />
            </Array>
            <mxPoint as="offset" />
          </mxGeometry>
        </mxCell>
        <mxCell id="Ayx8UKwLZl4_eoQ2Mf-4-60" value="Cadastrar Participante" style="rounded=0;whiteSpace=wrap;html=1;" vertex="1" parent="WIyWlLk6GJQsqaUBKTNV-1">
          <mxGeometry x="1177.5" y="1310" width="120" height="50" as="geometry" />
        </mxCell>
        <mxCell id="Ayx8UKwLZl4_eoQ2Mf-4-67" value="" style="edgeStyle=orthogonalEdgeStyle;rounded=0;orthogonalLoop=1;jettySize=auto;html=1;" edge="1" parent="WIyWlLk6GJQsqaUBKTNV-1" source="Ayx8UKwLZl4_eoQ2Mf-4-61" target="Ayx8UKwLZl4_eoQ2Mf-4-62">
          <mxGeometry relative="1" as="geometry" />
        </mxCell>
        <mxCell id="Ayx8UKwLZl4_eoQ2Mf-4-61" value="Qual o nome do participante?" style="shape=display;whiteSpace=wrap;html=1;" vertex="1" parent="WIyWlLk6GJQsqaUBKTNV-1">
          <mxGeometry x="1135" y="1090" width="205" height="50" as="geometry" />
        </mxCell>
        <mxCell id="Ayx8UKwLZl4_eoQ2Mf-4-68" value="" style="edgeStyle=orthogonalEdgeStyle;rounded=0;orthogonalLoop=1;jettySize=auto;html=1;" edge="1" parent="WIyWlLk6GJQsqaUBKTNV-1" source="Ayx8UKwLZl4_eoQ2Mf-4-62" target="Ayx8UKwLZl4_eoQ2Mf-4-60">
          <mxGeometry relative="1" as="geometry" />
        </mxCell>
        <mxCell id="Ayx8UKwLZl4_eoQ2Mf-4-62" value="Resposta" style="shape=manualInput;whiteSpace=wrap;html=1;" vertex="1" parent="WIyWlLk6GJQsqaUBKTNV-1">
          <mxGeometry x="1202.5" y="1180" width="70" height="70" as="geometry" />
        </mxCell>
        <mxCell id="Ayx8UKwLZl4_eoQ2Mf-4-69" value="" style="endArrow=classic;html=1;rounded=0;exitX=0;exitY=0.5;exitDx=0;exitDy=0;entryX=1;entryY=0.5;entryDx=0;entryDy=0;entryPerimeter=0;" edge="1" parent="WIyWlLk6GJQsqaUBKTNV-1" source="Ayx8UKwLZl4_eoQ2Mf-4-60" target="Ayx8UKwLZl4_eoQ2Mf-4-54">
          <mxGeometry width="50" height="50" relative="1" as="geometry">
            <mxPoint x="870" y="1380" as="sourcePoint" />
            <mxPoint x="920" y="1330" as="targetPoint" />
            <Array as="points">
              <mxPoint x="1000" y="1335" />
              <mxPoint x="1000" y="1245" />
            </Array>
          </mxGeometry>
        </mxCell>
        <mxCell id="Ayx8UKwLZl4_eoQ2Mf-4-70" value="Fim" style="ellipse;whiteSpace=wrap;html=1;" vertex="1" parent="WIyWlLk6GJQsqaUBKTNV-1">
          <mxGeometry x="561.245" y="1345" width="120" height="60" as="geometry" />
        </mxCell>
      </root>
    </mxGraphModel>
  </diagram>
</mxfile>
